<svg width="20" height="22" viewBox="0 0 16 18" fill="none" xmlns="http://www.w3.org/2000/svg">
<mask id="mask0_31_263" style="mask-type:luminance" maskUnits="userSpaceOnUse" x="0" y="0" width="16" height="18">
<path d="M16 0H0V17.5295H16V0Z" fill="white"/>
</mask>
<g mask="url(#mask0_31_263)">
<path d="M0.0273837 8.70133C0.0273837 7.7304 0.0149462 6.75597 0.0273837 5.78679C0.0200984 5.2825 0.152553 4.78598 0.4102 4.3517C0.667846 3.91743 1.04072 3.56219 1.4879 3.32503C3.16341 2.35234 4.84248 1.39027 6.52157 0.424661C6.96936 0.145149 7.48725 -0.00311279 8.01582 -0.00311279C8.54444 -0.00311279 9.06232 0.145149 9.51011 0.424661C11.1542 1.36787 12.7966 2.31108 14.4371 3.25429C15.3895 3.80076 15.9652 4.59482 15.9741 5.71605C15.9901 7.80289 16.0274 9.88798 15.9492 11.9731C15.944 12.3776 15.8355 12.7741 15.6337 13.1253C15.432 13.4765 15.1437 13.7707 14.796 13.9804C12.9553 15.1216 11.0796 16.2028 9.16895 17.2238C8.80813 17.4255 8.40126 17.5315 7.98743 17.5315C7.57354 17.5315 7.16668 17.4255 6.80585 17.2238C4.94377 16.2334 3.12433 15.1688 1.31556 14.0865C0.249482 13.4498 -0.00814904 12.424 -0.00281869 11.2798C-0.00281869 10.4221 -0.00281869 9.56435 -0.00281869 8.70664L0.0273837 8.70133ZM11.8093 11.0375C11.7631 10.8854 11.6547 10.8607 11.5712 10.8129C10.53 10.2117 9.49055 9.60148 8.43693 9.0179C8.29566 8.96046 8.17669 8.85931 8.09762 8.72933C8.0186 8.5994 7.98366 8.44757 7.99806 8.29635C8.02825 7.08134 8.00875 5.86639 7.99806 4.65318C7.99806 4.55061 8.05313 4.42504 7.90567 4.33131C6.7081 5.01985 5.50583 5.70899 4.29878 6.39872C4.23484 6.43157 4.18243 6.48297 4.14848 6.54613C4.11453 6.60928 4.10065 6.68121 4.10867 6.75241C4.10867 8.07996 4.10867 9.40814 4.10867 10.7369C4.10161 10.8208 4.12069 10.9048 4.16328 10.9776C4.20587 11.0504 4.26993 11.1083 4.34676 11.1437C5.48152 11.785 6.61277 12.4335 7.74041 13.089C7.8152 13.1418 7.90464 13.1701 7.99631 13.1701C8.08797 13.1701 8.17736 13.1418 8.25215 13.089C8.97886 12.6592 9.71801 12.2472 10.4518 11.8263C10.9102 11.561 11.3633 11.2957 11.8093 11.0375Z" fill="#e5e1e4"/>
</g>
</svg>
