<svg width="125" height="27" viewBox="0 0 125 27" fill="none" xmlns="http://www.w3.org/2000/svg">
<path d="M32.3479 12.5498L36.223 2.48382H38.3536L42.2144 12.5498H40.284L39.6119 10.6846H34.9504L34.264 12.5498H32.3479ZM35.5224 9.0758H39.0257L37.2812 4.27775L35.5224 9.0758Z" fill="#0F0E0E"/>
<path d="M46.622 15.981C46.0691 15.981 45.5495 15.8908 45.0634 15.7105C44.5867 15.5396 44.1816 15.2644 43.8479 14.8847C43.5238 14.5145 43.3046 14.0352 43.1902 13.4467H44.9776C45.0348 13.6745 45.1492 13.8596 45.3208 14.002C45.4923 14.1444 45.6925 14.244 45.9213 14.301C46.1596 14.3674 46.4027 14.4006 46.6506 14.4006C47.1177 14.4006 47.4847 14.3057 47.7516 14.1159C48.0281 13.9261 48.2235 13.665 48.3379 13.3328C48.4523 13.0101 48.5095 12.6542 48.5095 12.265V11.5531C48.3379 11.8284 48.1186 12.0467 47.8517 12.2081C47.5943 12.3694 47.3179 12.4833 47.0224 12.5498C46.7364 12.6067 46.4504 12.6352 46.1644 12.6352C45.3827 12.6352 44.744 12.4643 44.2483 12.1226C43.7621 11.7809 43.4047 11.3253 43.1759 10.7558C42.9471 10.1768 42.8327 9.54089 42.8327 8.848C42.8327 8.12663 42.9566 7.4717 43.2045 6.88321C43.4619 6.28524 43.8432 5.81065 44.3484 5.45946C44.8632 5.10827 45.5066 4.93267 46.2788 4.93267C46.7268 4.93267 47.1463 5.01335 47.5371 5.17471C47.9375 5.32658 48.2711 5.55912 48.5381 5.87235L48.6525 5.04657H50.2683V11.8948C50.2683 12.7396 50.1443 13.4657 49.8965 14.0732C49.6582 14.6901 49.2721 15.16 48.7383 15.4827C48.2044 15.8149 47.499 15.981 46.622 15.981ZM46.5219 11.0975C46.9699 11.0975 47.3417 10.9931 47.6372 10.7843C47.9327 10.566 48.1568 10.2812 48.3093 9.93005C48.4618 9.56936 48.5381 9.18021 48.5381 8.76257C48.5381 8.33544 48.4618 7.95103 48.3093 7.60933C48.1663 7.26763 47.947 6.99712 47.6515 6.79779C47.3655 6.59846 46.9938 6.4988 46.5362 6.4988C46.05 6.4988 45.6639 6.60796 45.3779 6.82626C45.092 7.04457 44.8822 7.33407 44.7488 7.69475C44.6249 8.04595 44.5629 8.42087 44.5629 8.81952C44.5629 9.23716 44.6296 9.62157 44.7631 9.97276C44.8965 10.3145 45.1063 10.5897 45.3922 10.7985C45.6782 10.9979 46.0548 11.0975 46.5219 11.0975Z" fill="#0F0E0E"/>
<path d="M55.2896 12.6494C54.2029 12.6494 53.3688 12.3694 52.7873 11.8094C52.2153 11.2494 51.9293 10.3951 51.9293 9.24665V5.04657H53.6738V9.13275C53.6738 9.5314 53.7262 9.87784 53.8311 10.1721C53.9455 10.4663 54.1219 10.6941 54.3602 10.8555C54.608 11.0074 54.9178 11.0833 55.2896 11.0833C55.69 11.0833 56.0046 11.0026 56.2334 10.8413C56.4717 10.6704 56.6385 10.4379 56.7338 10.1436C56.8292 9.84937 56.8768 9.51241 56.8768 9.13275V5.04657H58.6213V9.24665C58.6213 10.4236 58.3258 11.2874 57.7348 11.8379C57.1533 12.3789 56.3382 12.6494 55.2896 12.6494Z" fill="#0F0E0E"/>
<path d="M63.1689 12.6494C62.8067 12.6494 62.4444 12.6115 62.0822 12.5355C61.7295 12.4596 61.3958 12.3362 61.0812 12.1653C60.7667 11.985 60.5045 11.743 60.2948 11.4392C60.0851 11.1355 59.9468 10.7558 59.8801 10.3002H61.6389C61.7152 10.509 61.8343 10.6799 61.9964 10.8128C62.168 10.9362 62.3634 11.0311 62.5826 11.0975C62.8114 11.1545 63.0355 11.183 63.2547 11.183C63.3882 11.183 63.5312 11.1735 63.6837 11.1545C63.8457 11.1355 63.9935 11.0975 64.127 11.0406C64.27 10.9836 64.3843 10.9029 64.4701 10.7985C64.5559 10.6846 64.5988 10.5375 64.5988 10.3572C64.5988 10.1863 64.5512 10.0534 64.4558 9.95852C64.3605 9.85411 64.2318 9.77344 64.0698 9.71649C63.9077 9.65004 63.7123 9.59784 63.4835 9.55987C63.0736 9.47445 62.6351 9.38428 62.168 9.28936C61.7009 9.18495 61.2957 9.02359 60.9525 8.80528C60.8096 8.71986 60.6856 8.62019 60.5808 8.50629C60.4759 8.39239 60.3853 8.269 60.3091 8.13612C60.2423 7.99374 60.1899 7.84188 60.1518 7.68052C60.1232 7.51916 60.1089 7.34356 60.1089 7.15373C60.1089 6.75508 60.1899 6.41812 60.352 6.14286C60.5236 5.85811 60.7476 5.63031 61.024 5.45946C61.31 5.27912 61.6341 5.14624 61.9964 5.06081C62.3586 4.97538 62.7304 4.93267 63.1117 4.93267C63.6265 4.93267 64.0936 5.01335 64.513 5.17471C64.9325 5.33607 65.2804 5.58285 65.5569 5.91506C65.8429 6.24727 66.0144 6.66965 66.0716 7.1822H64.4129C64.3653 6.94491 64.2175 6.75508 63.9697 6.6127C63.7313 6.47033 63.4263 6.39914 63.0545 6.39914C62.9211 6.39914 62.7828 6.41338 62.6398 6.44185C62.4968 6.46083 62.3586 6.4988 62.2252 6.55575C62.1012 6.60321 61.9964 6.67914 61.9106 6.78355C61.8343 6.88796 61.7962 7.0161 61.7962 7.16797C61.7962 7.31034 61.8296 7.43373 61.8963 7.53814C61.9725 7.64255 62.0822 7.73272 62.2252 7.80866C62.3777 7.8751 62.554 7.93205 62.7542 7.97951C63.0784 8.04595 63.4168 8.11239 63.7695 8.17883C64.1222 8.24527 64.4272 8.31171 64.6846 8.37816C64.9897 8.46358 65.2661 8.58697 65.514 8.74833C65.7618 8.9002 65.9525 9.10427 66.0859 9.36055C66.2289 9.60733 66.3004 9.9253 66.3004 10.3145C66.3004 10.7701 66.2051 11.1497 66.0144 11.4535C65.8333 11.7572 65.5902 11.9945 65.2852 12.1653C64.9801 12.3362 64.6417 12.4596 64.2699 12.5355C63.8982 12.6115 63.5312 12.6494 63.1689 12.6494Z" fill="#0F0E0E"/>
<path d="M70.7328 12.5498C70.1227 12.5498 69.6175 12.4691 69.2171 12.3077C68.8263 12.1464 68.5308 11.8853 68.3306 11.5247C68.1399 11.164 68.0446 10.6799 68.0446 10.0724V6.58423H66.8864V5.04657H68.0446V2.95365H69.7891V5.04657H71.5479V6.58423H69.7891V9.84462C69.7891 10.2243 69.8558 10.5138 69.9893 10.7131C70.1227 10.9124 70.423 11.0121 70.8901 11.0121H71.4907V12.5498H70.7328Z" fill="#0F0E0E"/>
<path d="M72.7085 12.5498V5.04657H74.453V12.5498H72.7085ZM73.5807 4.17808C73.2471 4.17808 72.9802 4.07842 72.78 3.87909C72.5798 3.67977 72.4797 3.41875 72.4797 3.09603C72.4797 2.7828 72.5845 2.52653 72.7943 2.3272C73.004 2.11839 73.2661 2.01398 73.5807 2.01398C73.8858 2.01398 74.1479 2.11364 74.3672 2.31296C74.5864 2.51229 74.6961 2.77331 74.6961 3.09603C74.6961 3.41875 74.5912 3.67977 74.3815 3.87909C74.1718 4.07842 73.9048 4.17808 73.5807 4.17808Z" fill="#0F0E0E"/>
<path d="M76.1436 12.5498V5.04657H77.7737L77.8738 6.00049C78.074 5.73472 78.3076 5.5259 78.5745 5.37404C78.8414 5.22217 79.1226 5.11301 79.4181 5.04657C79.7137 4.97064 79.9901 4.93267 80.2475 4.93267C80.9624 4.93267 81.5249 5.08929 81.9348 5.40251C82.3542 5.71574 82.6498 6.13337 82.8213 6.65541C82.9929 7.17746 83.0787 7.7612 83.0787 8.40663V12.5498H81.3342V8.69138C81.3342 8.41612 81.3152 8.15036 81.277 7.89408C81.2389 7.62831 81.1626 7.39102 81.0482 7.1822C80.9434 6.97339 80.7909 6.80728 80.5907 6.68389C80.3905 6.5605 80.1236 6.4988 79.7899 6.4988C79.38 6.4988 79.0321 6.60796 78.7461 6.82626C78.4601 7.04457 78.2456 7.33882 78.1026 7.70899C77.9596 8.06968 77.8881 8.48257 77.8881 8.94766V12.5498H76.1436Z" fill="#0F0E0E"/>
<path d="M88.9833 12.5498V2.48382H91.4284L94.2311 7.56662L97.0051 2.48382H99.3788V12.5498H97.5914V4.73335L94.5743 10.1721H93.8164L90.7707 4.73335V12.5498H88.9833Z" fill="#0F0E0E"/>
<path d="M104.795 12.6494C104.023 12.6494 103.355 12.4928 102.793 12.1796C102.24 11.8664 101.811 11.4202 101.506 10.8413C101.21 10.2623 101.063 9.5836 101.063 8.80528C101.063 8.01747 101.215 7.33882 101.52 6.76931C101.825 6.19032 102.254 5.73947 102.807 5.41675C103.36 5.09403 104.023 4.93267 104.795 4.93267C105.557 4.93267 106.215 5.09403 106.768 5.41675C107.321 5.73947 107.745 6.19507 108.041 6.78355C108.336 7.36255 108.484 8.04595 108.484 8.83376C108.484 9.60258 108.336 10.2765 108.041 10.8555C107.755 11.425 107.335 11.8664 106.782 12.1796C106.229 12.4928 105.567 12.6494 104.795 12.6494ZM104.781 11.0691C105.257 11.0691 105.638 10.9646 105.924 10.7558C106.22 10.547 106.434 10.2717 106.568 9.93005C106.701 9.58835 106.768 9.21817 106.768 8.81952C106.768 8.42087 106.701 8.04595 106.568 7.69475C106.434 7.34356 106.22 7.06356 105.924 6.85474C105.638 6.63643 105.257 6.52728 104.781 6.52728C104.304 6.52728 103.918 6.63643 103.622 6.85474C103.327 7.06356 103.112 7.34356 102.979 7.69475C102.845 8.03646 102.779 8.41138 102.779 8.81952C102.779 9.21817 102.845 9.59309 102.979 9.94429C103.122 10.286 103.336 10.5612 103.622 10.7701C103.918 10.9694 104.304 11.0691 104.781 11.0691Z" fill="#0F0E0E"/>
<path d="M113.212 15.981C112.631 15.981 112.064 15.9003 111.511 15.739C110.967 15.5871 110.462 15.3261 109.995 14.9559L110.624 13.5606C110.948 13.8169 111.311 14.0162 111.711 14.1586C112.111 14.3105 112.55 14.3864 113.027 14.3864C113.78 14.3864 114.328 14.1966 114.671 13.8169C115.024 13.4372 115.2 12.9199 115.2 12.265V11.7097C115.028 11.928 114.819 12.1084 114.571 12.2508C114.323 12.3931 114.056 12.4976 113.77 12.564C113.484 12.6304 113.193 12.6637 112.898 12.6637C112.164 12.6637 111.578 12.5165 111.139 12.2223C110.71 11.9186 110.4 11.5057 110.21 10.9836C110.019 10.4521 109.924 9.84937 109.924 9.17546V5.04657H111.654V8.79105C111.654 9.05681 111.673 9.32733 111.711 9.60259C111.749 9.87784 111.825 10.1294 111.94 10.3572C112.054 10.585 112.221 10.7701 112.44 10.9124C112.669 11.0453 112.969 11.1118 113.341 11.1118C113.827 11.1118 114.204 10.9931 114.471 10.7558C114.738 10.5185 114.919 10.2101 115.014 9.83039C115.119 9.45072 115.171 9.04732 115.171 8.62019V5.04657H116.916V11.8379C116.916 12.4738 116.849 13.0433 116.716 13.5464C116.582 14.0589 116.368 14.4956 116.072 14.8562C115.777 15.2169 115.395 15.4922 114.928 15.682C114.461 15.8813 113.889 15.981 113.212 15.981Z" fill="#0F0E0E"/>
<path d="M121.011 12.6494C120.658 12.6494 120.324 12.602 120.01 12.507C119.695 12.4121 119.414 12.2745 119.166 12.0942C118.918 11.9043 118.718 11.6718 118.565 11.3965C118.422 11.1118 118.351 10.7796 118.351 10.3999C118.351 9.91581 118.446 9.52191 118.637 9.21817C118.828 8.90495 119.085 8.66765 119.409 8.50629C119.743 8.34494 120.119 8.23578 120.539 8.17883C120.958 8.11239 121.397 8.07917 121.854 8.07917H123.327C123.327 7.74696 123.275 7.46221 123.17 7.22492C123.065 6.97813 122.898 6.78355 122.669 6.64118C122.45 6.4988 122.164 6.42761 121.811 6.42761C121.582 6.42761 121.368 6.45609 121.168 6.51304C120.977 6.5605 120.81 6.64118 120.667 6.75508C120.534 6.85949 120.439 6.99712 120.381 7.16797H118.594C118.661 6.77881 118.794 6.4466 118.994 6.17134C119.204 5.88659 119.457 5.65404 119.752 5.4737C120.057 5.29336 120.391 5.16047 120.753 5.07505C121.115 4.98013 121.482 4.93267 121.854 4.93267C122.95 4.93267 123.746 5.2459 124.242 5.87235C124.747 6.4988 125 7.37678 125 8.50629V12.5498H123.456L123.413 11.5816C123.194 11.9043 122.931 12.1416 122.626 12.2935C122.321 12.4453 122.026 12.5403 121.74 12.5782C121.454 12.6257 121.211 12.6494 121.011 12.6494ZM121.354 11.2399C121.735 11.2399 122.073 11.1687 122.369 11.0263C122.664 10.884 122.898 10.6846 123.07 10.4284C123.251 10.1721 123.341 9.87784 123.341 9.54563V9.3036H121.969C121.74 9.3036 121.511 9.31309 121.282 9.33207C121.063 9.34156 120.863 9.37953 120.682 9.44597C120.501 9.50292 120.353 9.59309 120.238 9.71649C120.134 9.83988 120.081 10.0155 120.081 10.2433C120.081 10.4711 120.138 10.6562 120.253 10.7985C120.377 10.9409 120.534 11.0501 120.725 11.126C120.925 11.2019 121.134 11.2399 121.354 11.2399Z" fill="#0F0E0E"/>
<path d="M34.7829 21.6943L32.2581 19.9614V19.7824L34.7829 18.0414V18.3912L32.6339 19.8638L34.7829 21.3364V21.6943Z" fill="#0F0E0E"/>
<path d="M38.0824 22.7764C37.6248 22.7764 37.2571 22.676 36.9793 22.4754C36.7015 22.2692 36.4999 22.0008 36.3746 21.6699C36.2548 21.3391 36.1949 20.9784 36.1949 20.5879C36.1949 20.1431 36.2738 19.7553 36.4318 19.4245C36.5898 19.0936 36.8159 18.836 37.11 18.6516C37.4042 18.4671 37.7582 18.3749 38.1722 18.3749C38.3629 18.3749 38.559 18.4048 38.7605 18.4644C38.9621 18.5187 39.1555 18.6109 39.3407 18.7411C39.5259 18.8658 39.6784 19.0366 39.7983 19.2536V16.9675H40.1414V22.7194H39.7983V21.8001C39.6675 22.0442 39.5068 22.2394 39.3162 22.3859C39.1255 22.5269 38.9212 22.6272 38.7033 22.6869C38.4909 22.7465 38.2839 22.7764 38.0824 22.7764ZM38.115 22.4835C38.4746 22.4835 38.7796 22.3967 39.0302 22.2231C39.2862 22.0442 39.4796 21.8082 39.6103 21.5153C39.7465 21.2225 39.8146 20.9024 39.8146 20.5553C39.8146 20.2082 39.752 19.8936 39.6267 19.6116C39.5068 19.3241 39.3243 19.0963 39.0792 18.9282C38.8341 18.7546 38.5263 18.6678 38.1559 18.6678C37.78 18.6678 37.4723 18.7573 37.2326 18.9363C36.9929 19.1153 36.8159 19.3485 36.7015 19.636C36.5925 19.9234 36.538 20.2326 36.538 20.5635C36.538 20.7967 36.5598 21.0272 36.6034 21.255C36.6524 21.4828 36.7341 21.6889 36.8485 21.8733C36.9684 22.0577 37.1291 22.2069 37.3306 22.3208C37.5376 22.4293 37.7991 22.4835 38.115 22.4835Z" fill="#0F0E0E"/>
<path d="M43.1841 22.7764C42.732 22.7764 42.3561 22.6815 42.0565 22.4916C41.7569 22.3018 41.5336 22.0414 41.3865 21.7106C41.2449 21.3797 41.174 21.0028 41.174 20.5797C41.174 20.1729 41.2476 19.8041 41.3947 19.4733C41.5472 19.137 41.7732 18.8712 42.0728 18.676C42.3724 18.4753 42.7401 18.3749 43.1759 18.3749C43.481 18.3749 43.7452 18.4292 43.9685 18.5377C44.1918 18.6461 44.3771 18.7953 44.5241 18.9851C44.6767 19.175 44.791 19.3946 44.8673 19.6441C44.949 19.8882 44.998 20.1485 45.0144 20.4251C45.0198 20.4631 45.0226 20.5038 45.0226 20.5472C45.0226 20.5852 45.0226 20.6258 45.0226 20.6692H41.5172C41.5336 21.0218 41.6017 21.3364 41.7215 21.613C41.8413 21.8842 42.0238 22.0984 42.2689 22.2557C42.5141 22.4076 42.8327 22.4835 43.2249 22.4835C43.3829 22.4835 43.5463 22.4645 43.7152 22.4265C43.8841 22.3831 44.0393 22.3154 44.181 22.2231C44.3226 22.1309 44.4342 22.0089 44.516 21.857H44.9C44.8074 22.074 44.6685 22.2503 44.4833 22.3859C44.2981 22.5215 44.0911 22.6218 43.8623 22.6869C43.6335 22.7465 43.4074 22.7764 43.1841 22.7764ZM41.5254 20.3845H44.6794C44.6685 20.0753 44.6058 19.7906 44.4914 19.5302C44.3771 19.2699 44.2082 19.0611 43.9848 18.9038C43.7615 18.7465 43.481 18.6678 43.1432 18.6678C42.811 18.6678 42.525 18.7492 42.2853 18.9119C42.0511 19.0746 41.8686 19.2861 41.7378 19.5465C41.6125 19.8068 41.5417 20.0862 41.5254 20.3845Z" fill="#0F0E0E"/>
<path d="M47.2869 22.7194L45.571 18.4319H45.9632L47.5402 22.4265L49.1254 18.4319H49.5094L47.769 22.7194H47.2869Z" fill="#0F0E0E"/>
<path d="M52.1351 24.1676L54.709 16.1539H55.093L52.5192 24.1676H52.1351Z" fill="#0F0E0E"/>
<path d="M56.4039 21.6943V21.3364L58.5528 19.8719L56.4039 18.3912V18.0414L58.9287 19.7824V19.9614L56.4039 21.6943Z" fill="#0F0E0E"/>
<mask id="mask0_29_250" style="mask-type:luminance" maskUnits="userSpaceOnUse" x="0" y="0" width="25" height="27">
<path d="M24.6441 0H0V27H24.6441V0Z" fill="white"/>
</mask>
<g mask="url(#mask0_29_250)">
<path d="M0.0421573 13.4023C0.0421573 11.9068 0.0230003 10.406 0.0421573 8.91317C0.0309361 8.13644 0.23495 7.37167 0.631793 6.70277C1.02863 6.03387 1.60295 5.48673 2.29172 5.12142C4.87245 3.62323 7.45865 2.14141 10.0449 0.65412C10.7346 0.2236 11.5323 -0.00476074 12.3464 -0.00476074C13.1606 -0.00476074 13.9583 0.2236 14.648 0.65412C17.1804 2.10691 19.71 3.55969 22.2369 5.01247C23.7037 5.85418 24.5905 7.07724 24.6041 8.80422C24.6288 12.0185 24.6862 15.2301 24.5658 18.4416C24.5579 19.0647 24.3907 19.6754 24.0799 20.2164C23.7692 20.7573 23.3252 21.2105 22.7897 21.5334C19.9545 23.2912 17.0654 24.9565 14.1225 26.5291C13.5668 26.8398 12.9401 27.003 12.3027 27.003C11.6652 27.003 11.0385 26.8398 10.4827 26.5291C7.61465 25.0037 4.81225 23.3639 2.02627 21.6968C0.384246 20.7161 -0.0125722 19.1362 -0.00436213 17.3739C-0.00436213 16.0528 -0.00436213 14.7316 -0.00436213 13.4105L0.0421573 13.4023ZM18.1893 17.0006C18.1181 16.7664 17.9512 16.7282 17.8225 16.6547C16.2189 15.7286 14.6179 14.7888 12.995 13.8899C12.7774 13.8014 12.5942 13.6456 12.4724 13.4454C12.3507 13.2453 12.2969 13.0115 12.319 12.7785C12.3655 10.9071 12.3355 9.03578 12.319 7.16713C12.319 7.00914 12.4039 6.81573 12.1767 6.67136C10.3322 7.7319 8.48037 8.79334 6.62121 9.85571C6.52272 9.90629 6.44199 9.98547 6.3897 10.0827C6.33741 10.18 6.31603 10.2908 6.32838 10.4005C6.32838 12.4452 6.32838 14.491 6.32838 16.5376C6.31751 16.6669 6.34689 16.7963 6.4125 16.9084C6.4781 17.0205 6.57677 17.1097 6.69511 17.1641C8.44292 18.152 10.1853 19.1508 11.9222 20.1605C12.0374 20.2417 12.1752 20.2854 12.3163 20.2854C12.4575 20.2854 12.5952 20.2417 12.7104 20.1605C13.8297 19.4985 14.9682 18.8639 16.0984 18.2155C16.8045 17.807 17.5024 17.3983 18.1893 17.0006Z" fill="#0F0E0E"/>
</g>
</svg>
